PathFileType	4	(X/Y/Z)	C:/Users/beibeiliu/ov580/test_trc/capture2\sequence.8_training_dense_right.trc
DataRate	CameraRate	NumFrames	NumMarkers	Units	OrigDataRate	OrigDataStartFrame	OrigNumFrames
120	120	14	19	mm	120	151	400
Frame#	Time	ThumbCMC			ThumbMCP			ThumbIP			ThumbTip			IndexMCP			IndexPIP			IndexTip			MiddleMCP			MiddlePIP			MiddleTip			RingMCP			RingPIP			RingTip			PinkyMCP			PinkyPIP			PinkyTip			BackHand1			BackHand2			BackHand3	
		X0	Y0	Z0	X1	Y1	Z1	X2	Y2	Z2	X3	Y3	Z3	X4	Y4	Z4	X5	Y5	Z5	X6	Y6	Z6	X7	Y7	Z7	X8	Y8	Z8	X9	Y9	Z9	X10	Y10	Z10	X11	Y11	Z11	X12	Y12	Z12	X13	Y13	Z13	X14	Y14	Z14	X15	Y15	Z15	X16	Y16	Z16	X17	Y17	Z17	X18	Y18	Z18	
150	1.25	113.679	105.692	-29.8903	100.508	100.435	-53.3328	81.3558	98.4883	-68.7156	62.2062	97.0453	-82.2448	97.5722	151.872	-84.0576	85.277	158.608	-101.327	70.0887	175.113	-118.779	121.398	174.135	-88.4453	116.968	188.123	-107.86	109.77	208.292	-122.823	143.821	177.219	-84.8484	143.153	193.739	-104.122	139.779	208.519	-117.914	169.672	173.882	-79.8841	178.324	181.232	-92.4695	185.072	202.415	-100.969	144.912	161.871	-39.861	150.62	149.87	-13.6254	121.992	141.263	-29.3553	
151	1.25833	115.606	110.153	-34.3387	103.725	101.945	-54.4425	86.6039	106.008	-74.9128	69.7034	103.273	-88.3781	105.788	155.059	-86.7184	98.4439	165.494	-105.719	84.1684	183.04	-122.292	132.649	175.813	-87.5761	128.415	189.731	-107.26	121.242	208.489	-122.8	155.76	183.113	-88.2124	155.869	196.054	-103.728	155.104	210.776	-117.629	183.473	174.911	-77.514	189.599	183.074	-93.5848	197.902	202.192	-101.419	152.746	161.786	-40.1227	160.8	150.247	-10.5104	128.022	143.041	-30.6813	
152	1.26667	123.931	114.436	-36.4802	109.837	106.743	-57.1627	87.8283	109.255	-79.788	74.1585	109.042	-91.1254	118.256	162.098	-91.0087	107.982	171.102	-110.284	98.8497	187.774	-124.641	142.151	182.563	-93.4008	138.311	193.62	-111.137	138.38	215.802	-124.298	165.526	181.208	-87.0902	165.491	192.425	-103.59	165.817	211.49	-119.406	190.525	172.845	-80.0657	203.866	182.672	-94.8439	208.861	197.869	-100.243	164.917	165.831	-40.012	163.238	147.993	-13.3181	133.864	144.483	-31.6655	
153	1.275	127.815	116.578	-36.8145	114.526	111.51	-60.79	95.049	114.934	-83.0261	81.3659	112.271	-95.1924	124.205	164.982	-95.702	119.488	175.462	-113.513	114.095	192.634	-126.216	150.781	180.365	-91.7259	152.493	198.148	-113.749	147.823	218.903	-128.32	174.167	183.814	-91.3938	179.164	195.34	-107.072	182.041	214.088	-120.137	201.882	173.112	-81.2659	213.758	179.604	-95.8546	221.043	197.841	-103.465	172.195	166.255	-43.3526	170.944	154.394	-17.3063	142.643	148.236	-33.5222	
154	1.28333	134.852	118.548	-40.0746	121.103	114.206	-64.298	105.071	116.531	-85.7786	89.6636	117.506	-101.319	137.652	168.951	-99.9534	130.334	178.309	-117.114	127.92	196.106	-129.068	164.13	181.917	-95.0211	165.853	194.434	-112.778	163.021	217.9	-129.113	187.684	179.726	-89.3914	195.483	191.162	-105.083	194.399	209.578	-120.551	213.802	167.765	-79.3765	224.312	172.447	-92.7439	234.924	189.345	-97.4692	179.455	161.285	-43.5532	181.139	150.953	-16.3767	147.659	150.381	-36.4468	
155	1.29167	141.673	119.423	-40.8097	127.334	115.418	-66.1417	111.407	119.036	-89.0799	102.105	121.388	-105.978	149.589	169.472	-99.599	145.683	179.962	-119.62	140.516	193.619	-128.349	173.208	181.135	-97.8622	179.584	195.267	-114.914	178.047	216.038	-129.426	201.867	174.911	-89.3025	207.933	188.225	-106.751	210.779	206.854	-121.968	223.572	162.697	-77.7318	237.876	167.844	-93.2519	248.959	184.289	-99.4806	192.139	162.63	-45.7738	189.223	147.809	-17.5106	158.886	149.024	-36.7778	
156	1.3	144.711	120.406	-44.8004	135.699	113.816	-66.7697	121.561	117.54	-90.1322	109.147	120.071	-106.409	157.915	167.59	-101.104	154.977	179.294	-120.812	152.885	193.542	-131.352	187.852	177.612	-98.391	187.819	187.032	-114.816	194.776	212.105	-130.234	209.68	173.302	-94.3821	217.723	183.479	-110.557	223.864	200.294	-123.619	233.834	156.219	-78.3809	244.241	160.441	-93.8668	262.011	176.782	-98.7367	199.418	158.053	-47.5375	193.63	144.124	-18.6753	166.751	151.104	-38.4048	
157	1.30833	147.83	116.917	-45.0514	139.108	115.289	-73.7538	125.976	118.852	-96.1566	116.697	121.403	-113.804	169.419	162.954	-99.7083	163.238	173.618	-120.969	162.907	192.638	-135.403	195.559	173.472	-100.875	202.677	184.98	-118.008	207.686	205.625	-130.892	222.796	163.766	-90.9502	228.336	173.534	-107	239.434	190.436	-120.079	242.15	148.194	-76.8422	252.789	151.212	-91.5995	269.651	162.876	-95.5164	205.439	150.794	-42.3525	197.517	140.958	-16.9809	170.171	146.148	-40.7524	
158	1.31667	154.096	116.837	-51.5009	143.353	110.479	-72.5	133.81	115.135	-98.0487	120.445	118.53	-116.663	178.531	160.965	-103.138	173.634	167.511	-121.278	177.07	187.229	-136.223	207.044	165.523	-97.5559	212.601	176.723	-116.037	220.697	196.206	-131.005	229.46	156.446	-90.4931	237.957	164.202	-106.81	248.057	183.549	-123.473	249.662	138.816	-74.9857	261.914	142.29	-91.2062	280.269	150.86	-91.5877	213.861	146.128	-46.8626	203.039	133.875	-20.7436	176.433	142.42	-42.928	
159	1.325	156.743	112.246	-49.4439	153.032	107.484	-76.006	140.735	110.454	-96.728	127.892	115.204	-119.666	185.562	154.267	-105.527	185.936	160.709	-122.631	185.492	179.589	-139.336	214.378	157.05	-96.8328	225.156	171.263	-119.41	231.301	185.41	-131.891	234.984	146.728	-90.1451	248.473	156.937	-107.289	260.794	169.985	-120.272	251.876	129.304	-74.7704	270.408	130.756	-86.7784	286.362	141.922	-93.7604	220.397	135.926	-42.7331	212.802	127.029	-19.5615	188.292	139.031	-42.9197	
160	1.33333	165.916	108.86	-53.2238	151.718	102.249	-75.9639	139.94	106.672	-98.3996	130.824	110.528	-119.088	192.836	147.201	-105.558	195.324	154.371	-124.684	198.505	174.467	-141.959	221.914	150.761	-101.331	230.733	161.687	-120.479	242.037	175.082	-133.01	244.088	139.903	-92.115	255.012	147.028	-107.382	270.7	160.834	-122.077	260.764	118.947	-74.0698	272.602	119.833	-86.1071	292.792	128.091	-88.971	223.244	128.598	-42.8311	217.299	121.008	-20.1575	188.981	131.838	-43.1722	
161	1.34167	166.971	103.689	-51.3215	157.592	97.9981	-78.3524	147.266	103.178	-103.31	138.877	104.278	-117.242	201.506	140.529	-104.462	206.232	148.337	-125.511	209.884	166.293	-143.783	229.469	142.349	-101.219	243.065	148.183	-116.09	250.216	165.868	-133.993	250.994	128.885	-89.2237	264.814	137.042	-105.506	277.803	147.495	-118.351	265.423	109.658	-73.6401	281.746	108.462	-81.2475	301.214	117.535	-84.8351	227.692	123.043	-46.5462	217.288	114.688	-16.205	194.136	127.639	-42.2131	
162	1.35	172.497	99.5332	-53.9574	160.988	92.5916	-78.2992	153.713	95.6353	-101.227	146.067	96.7952	-119.441	210.416	130.527	-103.939	215.287	139.157	-125.151	216.384	153.189	-141.013	239.147	131.838	-100.029	248.722	140.056	-117.222	262.773	157.345	-135.661	256.173	119.582	-90.048	269.702	126.436	-104.053	287.643	138.211	-120.937	270.306	97.258	-67.7633	286.891	98.2543	-80.7874	308.449	105.864	-85.1461	237.526	112.756	-46.328	224.967	107.688	-17.2921	200.103	120.155	-47.5838	
163	1.35833	172.76	92.9601	-52.7667	166.898	86.5486	-80.4723	159.199	88.2179	-104.326	149.477	89.831	-121.67	213.451	124.86	-109.972	219.879	130.782	-127.247	228.244	147.679	-144.075	241.844	123.214	-99.0057	258.281	129.402	-115.821	268.027	143.344	-133.971	263.113	109.396	-87.7567	279.51	114.606	-101.902	294.709	123.848	-115.634	274.45	88.0625	-69.6968	290.613	87.4654	-80.2529	313.598	95.6775	-82.5017	237.899	106.105	-45.2487	228.082	102.027	-19.4526	203.86	111.71	-43.8245	
